<svg width="174" height="42" viewBox="0 0 174 42" fill="none" xmlns="http://www.w3.org/2000/svg">
<path d="M31.5627 19.5478C31.7628 19.6959 32.0074 19.5966 32.0074 19.3478V8.5H37.0104V20.2972H32.9635C32.9141 20.302 32.8672 20.3209 32.8284 20.3518C32.7896 20.3827 32.7606 20.4242 32.7449 20.4712C32.7292 20.5183 32.7275 20.5688 32.74 20.6168C32.7525 20.6648 32.7786 20.7081 32.8153 20.7415L37.0178 24.9405V33.4881H32.0133V27.0452L18.4483 13.4988H17.003V33.4941H12V8.5H20.5562L31.5627 19.5478Z" fill="url(#paint0_linear_161_4858)"/>
<path d="M88.1488 8.5H46.4723L40.0181 14.9474V33.4941H58.5802L65.0344 27.0452V13.4988H79.5927C79.5927 13.4988 71.665 21.4125 68.5594 24.5199L67.3869 25.693C67.3723 25.7132 67.3549 25.7312 67.335 25.7463L63.1325 29.9453V33.5H66.6902L76.6976 23.5024H83.1518V33.5H88.1488V18.4976H81.6946L88.1488 12.0488V8.5ZM60.0299 24.9405L56.4723 28.4953H45.021V17.0476L48.5787 13.4929H60.0359L60.0299 24.9405Z" fill="url(#paint1_linear_161_4858)"/>
<path d="M91.3507 8.5H94.9084L116.367 29.9453V33.5H112.809L103.854 24.5525L94.8995 33.5H91.3418V29.9453L95.5532 25.7418C95.5899 25.7084 95.616 25.6651 95.6285 25.6171C95.641 25.5691 95.6394 25.5186 95.6237 25.4715C95.608 25.4245 95.579 25.383 95.5401 25.3521C95.5013 25.3212 95.4544 25.3023 95.405 25.2975H91.3507V8.5ZM100.307 21.0022L96.3537 17.0476V24.3466C96.3537 24.5969 96.6042 24.6962 96.7984 24.5466L100.307 21.0022Z" fill="url(#paint2_linear_161_4858)"/>
<path d="M144.123 25.2323H140.101C140.051 25.2365 140.004 25.2551 139.965 25.2859C139.925 25.3167 139.896 25.3583 139.88 25.4057C139.865 25.453 139.863 25.5039 139.876 25.552C139.889 25.6002 139.916 25.6435 139.953 25.6767L144.124 29.8446V33.3697H140.595L131.701 24.4829L122.806 33.3697H119.293V29.8475L140.595 8.56073H144.123V25.2323ZM138.711 24.4918C138.909 24.6399 139.155 24.5406 139.155 24.2933V17.0461L135.235 20.9652L138.711 24.4918Z" fill="url(#paint3_linear_161_4858)"/>
<path d="M162 28.4079V33.3697H147.102V28.4079H152.068V13.5225H147.102V8.56073H162V13.5225H157.034V28.4079H162Z" fill="url(#paint4_linear_161_4858)"/>
<defs>
<linearGradient id="paint0_linear_161_4858" x1="-26.8636" y1="-30.087" x2="176.02" y2="-1.68382" gradientUnits="userSpaceOnUse">
<stop stop-color="#640844"/>
<stop offset="0.528163" stop-color="#CA1089"/>
<stop offset="1" stop-color="#640844"/>
</linearGradient>
<linearGradient id="paint1_linear_161_4858" x1="-26.8636" y1="-30.087" x2="176.02" y2="-1.68382" gradientUnits="userSpaceOnUse">
<stop stop-color="#640844"/>
<stop offset="0.528163" stop-color="#CA1089"/>
<stop offset="1" stop-color="#640844"/>
</linearGradient>
<linearGradient id="paint2_linear_161_4858" x1="-26.8636" y1="-30.087" x2="176.02" y2="-1.68382" gradientUnits="userSpaceOnUse">
<stop stop-color="#640844"/>
<stop offset="0.528163" stop-color="#CA1089"/>
<stop offset="1" stop-color="#640844"/>
</linearGradient>
<linearGradient id="paint3_linear_161_4858" x1="-26.8636" y1="-30.087" x2="176.02" y2="-1.68382" gradientUnits="userSpaceOnUse">
<stop stop-color="#640844"/>
<stop offset="0.528163" stop-color="#CA1089"/>
<stop offset="1" stop-color="#640844"/>
</linearGradient>
<linearGradient id="paint4_linear_161_4858" x1="-26.8636" y1="-30.087" x2="176.02" y2="-1.68382" gradientUnits="userSpaceOnUse">
<stop stop-color="#640844"/>
<stop offset="0.528163" stop-color="#CA1089"/>
<stop offset="1" stop-color="#640844"/>
</linearGradient>
</defs>
</svg>
